<?xml version="1.0" encoding="iso-8859-1"?>
<!-- Generator: Adobe Illustrator 19.0.0, SVG Export Plug-In . SVG Version: 6.00 Build 0)  -->
<svg version="1.1" id="Capa_1" xmlns="http://www.w3.org/2000/svg" xmlns:xlink="http://www.w3.org/1999/xlink" x="0px" y="0px"
	 viewBox="0 0 480.003 480.003" style="fill: white;enable-background:new 0 0 480.003 480.003;" xml:space="preserve">
<g>
	<g>
		<path d="M168,1.042c-92.784,0-168,75.216-168,168c0.105,92.74,75.26,167.895,168,168c92.784,0,168-75.216,168-168
			S260.784,1.042,168,1.042z M168,321.042c-83.947,0-152-68.053-152-152c0.095-83.908,68.092-151.905,152-152
			c83.947,0,152,68.053,152,152S251.947,321.042,168,321.042z"/>
	</g>
</g>
<g>
	<g>
		<polygon points="456,25.042 456,1.042 440,1.042 440,25.042 416,25.042 416,41.042 440,41.042 440,65.042 456,65.042 456,41.042
			480,41.042 480,25.042 		"/>
	</g>
</g>
<g>
	<g>
		<polygon points="400,137.042 400,113.042 384,113.042 384,137.042 360,137.042 360,153.042 384,153.042 384,177.042 400,177.042
			400,153.042 424,153.042 424,137.042 		"/>
	</g>
</g>
<g>
	<g>
		<polygon points="56,353.042 56,329.042 40,329.042 40,353.042 16,353.042 16,369.042 40,369.042 40,393.042 56,393.042
			56,369.042 80,369.042 80,353.042 		"/>
	</g>
</g>
<g>
	<g>
		<path d="M474.967,241.614c-1.905-0.761-4.03-0.762-5.936-0.001l-80,32c-4.103,1.641-6.099,6.296-4.458,10.399
			c0.402,1.006,1.005,1.92,1.771,2.687l18.344,18.344L360,349.73l-42.344-42.344c-3.02-3.019-7.879-3.134-11.039-0.262l-176,160
			l10.766,11.836l170.352-154.867l42.609,42.605c3.122,3.124,8.186,3.125,11.309,0.003c0.001-0.001,0.002-0.002,0.003-0.003
			L416,316.355l18.344,18.344c1.5,1.501,3.534,2.344,5.656,2.344c0.541-0.001,1.08-0.056,1.609-0.164
			c2.634-0.54,4.821-2.367,5.82-4.863l32-80C481.07,247.911,479.072,243.254,474.967,241.614z M437.078,314.808l-30.844-30.844
			l51.406-20.562L437.078,314.808z"/>
	</g>
</g>
<g>
	<g>
		<path d="M176,161.042h-16c-17.665-0.019-31.981-14.335-32-32v-16c0.019-17.665,14.335-31.981,32-32h16
			c17.665,0.019,31.981,14.335,32,32h16c-0.029-26.498-21.502-47.971-48-48v-32h-16v32c-26.498,0.029-47.971,21.502-48,48v16
			c0.029,26.498,21.502,47.971,48,48h16c17.665,0.019,31.981,14.335,32,32v16c-0.019,17.665-14.335,31.981-32,32h-16
			c-17.665-0.019-31.981-14.335-32-32h-16c0.029,26.498,21.502,47.971,48,48v32h16v-32c26.498-0.029,47.971-21.502,48-48v-16
			C223.971,182.545,202.498,161.071,176,161.042z"/>
	</g>
</g>
<g>
</g>
<g>
</g>
<g>
</g>
<g>
</g>
<g>
</g>
<g>
</g>
<g>
</g>
<g>
</g>
<g>
</g>
<g>
</g>
<g>
</g>
<g>
</g>
<g>
</g>
<g>
</g>
<g>
</g>
</svg>
